# xmcd
#
# Track frame offsets: 
#        150
#        8402
#        19195
#        28796
#        33973
#        43323
#        49355
#        81963
#        98094
#        118597
#        123543
#        129027
#        132769
#        136076
#        140451
#        152584
#        194087
#        239381
#
# Disc length: 3515 seconds
#
# Revision: 0
# Processed by: cddbd v1.5.2PL0 Copyright (c) Steve Scherf et al.
# Submitted via: ExactAudioCopy v1.0b3
#
DISCID=ef0db912
DTITLE=Chick Core and Nicolas Economou - Chick Core and Nicola Economou 
DTITLE=On Two Pianos
DYEAR=1983
DGENRE=Jazz
TTITLE0=Suite (Improvisation)
TTITLE1=Suite (Improvisation)
TTITLE2=Suite (Improvisation)
TTITLE3=Suite (Improvisation)
TTITLE4=Suite (Improvisation)
TTITLE5=Suite (Improvisation)
TTITLE6=Suite (Improvisation)
TTITLE7=Suite (Improvisation)
TTITLE8=Suite (Improvisation)
TTITLE9=6 Pieces from Mikrokosmos
TTITLE10=6 Pieces from Mikrokosmos
TTITLE11=6 Pieces from Mikrokosmos
TTITLE12=6 Pieces from Mikrokosmos
TTITLE13=6 Pieces from Mikrokosmos
TTITLE14=6 Pieces from Mikrokosmos
TTITLE15=Homecoming
TTITLE16=Duet for Two Pianos
TTITLE17=Invention
EXTD=
EXTT0=
EXTT1=
EXTT2=
EXTT3=
EXTT4=
EXTT5=
EXTT6=
EXTT7=
EXTT8=
EXTT9=
EXTT10=
EXTT11=
EXTT12=
EXTT13=
EXTT14=
EXTT15=
EXTT16=
EXTT17=
PLAYORDER=
